HIERARCHY
ROOT mixamorig:Hips
{
	OFFSET -0.000008 104.274872 1.554316
	CHANNELS 6 Xposition Yposition Zposition Xrotation Yrotation Zrotation
	JOINT mixamorig:Spine
	{
		OFFSET -0.000005 10.181595 0.131521
		CHANNELS 6 Xposition Yposition Zposition Xrotation Yrotation Zrotation
		JOINT mixamorig:Spine1
		{
			OFFSET -0.000000 9.893959 -1.470711
			CHANNELS 6 Xposition Yposition Zposition Xrotation Yrotation Zrotation
			JOINT mixamorig:Spine2
			{
				OFFSET -0.000000 9.220757 -1.370642
				CHANNELS 3 Xrotation Yrotation Zrotation
				JOINT mixamorig:Neck
				{
					OFFSET 0.000001 16.740417 -2.049038
					CHANNELS 6 Xposition Yposition Zposition Xrotation Yrotation Zrotation
					JOINT mixamorig:Head
					{
						OFFSET 0.000000 9.617874 1.685009
						CHANNELS 6 Xposition Yposition Zposition Xrotation Yrotation Zrotation
						JOINT mixamorig:HeadTop_End
						{
							OFFSET 0.000002 22.037384 7.501098
							CHANNELS 6 Xposition Yposition Zposition Xrotation Yrotation Zrotation
							End Site
							{
								OFFSET 0.000002 23.106583 -2.828261
							}
						}
					}
				}
				JOINT mixamorig:RightShoulder
				{
					OFFSET -4.569969 11.014923 -2.160886
					CHANNELS 6 Xposition Yposition Zposition Xrotation Yrotation Zrotation
					JOINT mixamorig:RightArm
					{
						OFFSET -10.592850 -0.524811 -2.232100
						CHANNELS 3 Xrotation Yrotation Zrotation
						JOINT mixamorig:RightForeArm
						{
							OFFSET -27.841520 0.000015 -0.000005
							CHANNELS 6 Xposition Yposition Zposition Xrotation Yrotation Zrotation
							JOINT mixamorig:RightHand
							{
								OFFSET -28.328838 -0.000015 0.000018
								CHANNELS 6 Xposition Yposition Zposition Xrotation Yrotation Zrotation
								JOINT mixamorig:RightHandThumb1
								{
									OFFSET -2.464806 -1.573990 2.681853
									CHANNELS 6 Xposition Yposition Zposition Xrotation Yrotation Zrotation
									JOINT mixamorig:RightHandThumb2
									{
										OFFSET -3.215195 -1.872772 1.924282
										CHANNELS 6 Xposition Yposition Zposition Xrotation Yrotation Zrotation
										JOINT mixamorig:RightHandThumb3
										{
											OFFSET -2.654823 -1.527985 1.512609
											CHANNELS 6 Xposition Yposition Zposition Xrotation Yrotation Zrotation
											JOINT mixamorig:RightHandThumb4
											{
												OFFSET -2.018822 -1.152008 1.108055
												CHANNELS 3 Xrotation Yrotation Zrotation
												End Site
												{
													OFFSET -1.888100 -1.145340 1.324313
												}
											}
										}
									}
								}
								JOINT mixamorig:RightHandIndex1
								{
									OFFSET -9.108284 -0.517868 2.259835
									CHANNELS 6 Xposition Yposition Zposition Xrotation Yrotation Zrotation
									JOINT mixamorig:RightHandIndex2
									{
										OFFSET -3.699997 0.000000 0.001215
										CHANNELS 3 Xrotation Yrotation Zrotation
										JOINT mixamorig:RightHandIndex3
										{
											OFFSET -2.850014 0.000031 -0.000522
											CHANNELS 3 Xrotation Yrotation Zrotation
											JOINT mixamorig:RightHandIndex4
											{
												OFFSET -2.772179 -0.000015 -0.000019
												CHANNELS 3 Xrotation Yrotation Zrotation
												End Site
												{
													OFFSET -2.772186 0.000000 -0.000502
												}
											}
										}
									}
								}
								JOINT mixamorig:RightHandMiddle1
								{
									OFFSET -9.532509 -0.000046 -0.000025
									CHANNELS 6 Xposition Yposition Zposition Xrotation Yrotation Zrotation
									JOINT mixamorig:RightHandMiddle2
									{
										OFFSET -3.700012 0.000000 0.003713
										CHANNELS 3 Xrotation Yrotation Zrotation
										JOINT mixamorig:RightHandMiddle3
										{
											OFFSET -2.949989 0.000015 -0.002054
											CHANNELS 3 Xrotation Yrotation Zrotation
											JOINT mixamorig:RightHandMiddle4
											{
												OFFSET -2.946625 0.000000 -0.000154
												CHANNELS 3 Xrotation Yrotation Zrotation
												End Site
												{
													OFFSET -2.946632 0.000015 -0.001136
												}
											}
										}
									}
								}
								JOINT mixamorig:RightHandRing1
								{
									OFFSET -9.103600 -0.043076 -1.865135
									CHANNELS 6 Xposition Yposition Zposition Xrotation Yrotation Zrotation
									JOINT mixamorig:RightHandRing2
									{
										OFFSET -3.379272 0.000000 -0.001054
										CHANNELS 3 Xrotation Yrotation Zrotation
										JOINT mixamorig:RightHandRing3
										{
											OFFSET -2.889694 0.000015 0.000379
											CHANNELS 3 Xrotation Yrotation Zrotation
											JOINT mixamorig:RightHandRing4
											{
												OFFSET -2.638809 0.000000 0.000941
												CHANNELS 3 Xrotation Yrotation Zrotation
												End Site
												{
													OFFSET -2.638802 0.000000 0.005160
												}
											}
										}
									}
								}
								JOINT mixamorig:RightHandPinky1
								{
									OFFSET -8.076675 -0.486710 -3.806280
									CHANNELS 6 Xposition Yposition Zposition Xrotation Yrotation Zrotation
									JOINT mixamorig:RightHandPinky2
									{
										OFFSET -3.600006 -0.000031 -0.003747
										CHANNELS 3 Xrotation Yrotation Zrotation
										JOINT mixamorig:RightHandPinky3
										{
											OFFSET -2.099976 -0.000015 -0.005740
											CHANNELS 3 Xrotation Yrotation Zrotation
											JOINT mixamorig:RightHandPinky4
											{
												OFFSET -2.115776 -0.000031 -0.003680
												CHANNELS 3 Xrotation Yrotation Zrotation
												End Site
												{
													OFFSET -2.115776 -0.000015 -0.003507
												}
											}
										}
									}
								}
							}
						}
					}
				}
				JOINT mixamorig:LeftShoulder
				{
					OFFSET 4.570447 11.014725 -2.160858
					CHANNELS 6 Xposition Yposition Zposition Xrotation Yrotation Zrotation
					JOINT mixamorig:LeftArm
					{
						OFFSET 10.592371 -0.524597 -2.232121
						CHANNELS 3 Xrotation Yrotation Zrotation
						JOINT mixamorig:LeftForeArm
						{
							OFFSET 27.841520 -0.000015 0.000023
							CHANNELS 3 Xrotation Yrotation Zrotation
							JOINT mixamorig:LeftHand
							{
								OFFSET 28.328835 -0.000046 0.000017
								CHANNELS 6 Xposition Yposition Zposition Xrotation Yrotation Zrotation
								JOINT mixamorig:LeftHandThumb1
								{
									OFFSET 2.466141 -1.576187 2.681734
									CHANNELS 6 Xposition Yposition Zposition Xrotation Yrotation Zrotation
									JOINT mixamorig:LeftHandThumb2
									{
										OFFSET 3.217804 -1.872055 1.916487
										CHANNELS 6 Xposition Yposition Zposition Xrotation Yrotation Zrotation
										JOINT mixamorig:LeftHandThumb3
										{
											OFFSET 2.656021 -1.528809 1.514508
											CHANNELS 6 Xposition Yposition Zposition Xrotation Yrotation Zrotation
											JOINT mixamorig:LeftHandThumb4
											{
												OFFSET 2.020889 -1.154068 1.115132
												CHANNELS 6 Xposition Yposition Zposition Xrotation Yrotation Zrotation
												End Site
												{
													OFFSET 1.908852 -1.150833 1.300490
												}
											}
										}
									}
								}
								JOINT mixamorig:LeftHandIndex1
								{
									OFFSET 9.109306 -0.518036 2.259871
									CHANNELS 6 Xposition Yposition Zposition Xrotation Yrotation Zrotation
									JOINT mixamorig:LeftHandIndex2
									{
										OFFSET 3.699997 -0.000015 -0.000323
										CHANNELS 3 Xrotation Yrotation Zrotation
										JOINT mixamorig:LeftHandIndex3
										{
											OFFSET 2.850006 -0.000015 0.000350
											CHANNELS 3 Xrotation Yrotation Zrotation
											JOINT mixamorig:LeftHandIndex4
											{
												OFFSET 2.774857 -0.000015 -0.000027
												CHANNELS 3 Xrotation Yrotation Zrotation
												End Site
												{
													OFFSET 2.774864 0.000000 -0.000099
												}
											}
										}
									}
								}
								JOINT mixamorig:LeftHandMiddle1
								{
									OFFSET 9.533401 0.000031 0.000044
									CHANNELS 6 Xposition Yposition Zposition Xrotation Yrotation Zrotation
									JOINT mixamorig:LeftHandMiddle2
									{
										OFFSET 3.699997 0.000000 -0.000231
										CHANNELS 3 Xrotation Yrotation Zrotation
										JOINT mixamorig:LeftHandMiddle3
										{
											OFFSET 2.949997 -0.000015 -0.000059
											CHANNELS 3 Xrotation Yrotation Zrotation
											JOINT mixamorig:LeftHandMiddle4
											{
												OFFSET 2.952866 0.000000 0.000062
												CHANNELS 3 Xrotation Yrotation Zrotation
												End Site
												{
													OFFSET 2.952858 0.000000 0.000228
												}
											}
										}
									}
								}
								JOINT mixamorig:LeftHandRing1
								{
									OFFSET 9.104530 -0.043030 -1.865075
									CHANNELS 6 Xposition Yposition Zposition Xrotation Yrotation Zrotation
									JOINT mixamorig:LeftHandRing2
									{
										OFFSET 3.150009 0.000000 0.000042
										CHANNELS 3 Xrotation Yrotation Zrotation
										JOINT mixamorig:LeftHandRing3
										{
											OFFSET 2.949989 -0.000015 0.000040
											CHANNELS 3 Xrotation Yrotation Zrotation
											JOINT mixamorig:LeftHandRing4
											{
												OFFSET 2.644318 -0.000015 0.000056
												CHANNELS 6 Xposition Yposition Zposition Xrotation Yrotation Zrotation
												End Site
												{
													OFFSET 2.644318 0.000000 0.000120
												}
											}
										}
									}
								}
								JOINT mixamorig:LeftHandPinky1
								{
									OFFSET 8.077782 -0.486877 -3.806258
									CHANNELS 6 Xposition Yposition Zposition Xrotation Yrotation Zrotation
									JOINT mixamorig:LeftHandPinky2
									{
										OFFSET 3.599960 0.000031 0.014726
										CHANNELS 3 Xrotation Yrotation Zrotation
										JOINT mixamorig:LeftHandPinky3
										{
											OFFSET 2.099998 0.000031 0.007705
											CHANNELS 3 Xrotation Yrotation Zrotation
											JOINT mixamorig:LeftHandPinky4
											{
												OFFSET 2.125504 0.000000 0.007515
												CHANNELS 3 Xrotation Yrotation Zrotation
												End Site
												{
													OFFSET 2.125511 0.000015 0.006257
												}
											}
										}
									}
								}
							}
						}
					}
				}
			}
		}
	}
	JOINT mixamorig:RightUpLeg
	{
		OFFSET -8.207787 -6.751663 -1.599560
		CHANNELS 6 Xposition Yposition Zposition Xrotation Yrotation Zrotation
		JOINT mixamorig:RightLeg
		{
			OFFSET -0.000001 -44.370129 0.345939
			CHANNELS 3 Xrotation Yrotation Zrotation
			JOINT mixamorig:RightFoot
			{
				OFFSET 0.000001 -44.423679 -3.043537
				CHANNELS 3 Xrotation Yrotation Zrotation
				JOINT mixamorig:RightToeBase
				{
					OFFSET -0.000003 -8.728673 10.710563
					CHANNELS 6 Xposition Yposition Zposition Xrotation Yrotation Zrotation
					JOINT mixamorig:RightToe_End
					{
						OFFSET -0.000002 -0.000676 9.278122
						CHANNELS 6 Xposition Yposition Zposition Xrotation Yrotation Zrotation
						End Site
						{
							OFFSET -0.000003 -0.000676 9.278122
						}
					}
				}
			}
		}
	}
	JOINT mixamorig:LeftUpLeg
	{
		OFFSET 8.207791 -6.751694 -1.599555
		CHANNELS 6 Xposition Yposition Zposition Xrotation Yrotation Zrotation
		JOINT mixamorig:LeftLeg
		{
			OFFSET -0.000002 -44.370033 0.346957
			CHANNELS 3 Xrotation Yrotation Zrotation
			JOINT mixamorig:LeftFoot
			{
				OFFSET 0.000000 -44.423672 -3.044393
				CHANNELS 3 Xrotation Yrotation Zrotation
				JOINT mixamorig:LeftToeBase
				{
					OFFSET -0.000003 -8.728668 10.710562
					CHANNELS 6 Xposition Yposition Zposition Xrotation Yrotation Zrotation
					JOINT mixamorig:LeftToe_End
					{
						OFFSET -0.000003 -0.000676 9.278135
						CHANNELS 6 Xposition Yposition Zposition Xrotation Yrotation Zrotation
						End Site
						{
							OFFSET -0.000003 -0.000677 9.278135
						}
					}
				}
			}
		}
	}
}
MOTION
Frames: 4
Frame Time: 0.033333
5.290720 101.913841 2.881382 -0.195689 11.014089 -4.968806 -0.000005 10.181571 0.131523 1.604776 -2.750669 2.428651 -0.000000 9.893953 -1.470710 1.451919 -2.743626 4.810423 1.428647 -2.229336 4.714567 -0.000002 16.740419 -2.049033 5.329634 -3.771710 -6.020294 0.000002 9.617894 1.685009 36.705645 -13.888373 2.235084 -0.000002 22.037369 7.501107 -0.000003 -0.000000 0.000001 -4.569973 11.014917 -2.160884 2.201889 3.277090 1.366604 36.483408 -14.504819 67.303120 -27.841526 0.000012 -0.000007 0.000056 117.946111 -0.000045 -28.328852 0.000011 0.000014 3.750985 26.488751 -24.556441 -2.464799 -1.573953 2.681847 18.671772 -0.303971 -11.105055 -3.215195 -1.872779 1.924278 0.926981 -31.768934 3.264699 -2.654839 -1.527973 1.512635 1.625903 -7.722553 1.317053 -0.000000 0.000000 -0.000001 -9.108278 -0.517850 2.259837 0.342749 -4.694279 7.844130 0.383327 -2.795082 20.565899 -0.193213 -0.226542 13.843898 -0.000004 0.000000 -0.000000 -9.532516 -0.000006 -0.000033 0.927365 -8.822601 15.817958 0.898710 -3.903220 33.429797 0.215897 -1.726751 15.906476 0.000001 0.000001 0.000000 -9.103583 -0.043073 -1.865130 2.545371 -11.654508 26.895002 1.717068 -3.912048 40.236849 -0.151627 0.022700 17.820689 -0.000000 -0.000001 0.000002 -8.076673 -0.486707 -3.806280 5.545278 -15.980320 36.930310 1.266867 -4.028234 45.642155 -0.765319 -0.312892 22.128956 -0.000000 -0.000003 0.000000 4.570446 11.014725 -2.160852 -1.343418 -21.254526 -23.852793 -12.701734 -27.093072 -16.860409 0.000078 -138.207061 0.000223 28.328838 -0.000044 0.000017 -36.493469 9.188177 20.762127 2.466130 -1.576225 2.681725 18.639663 0.201103 11.067450 3.217808 -1.872057 1.916491 0.957404 31.893039 -3.237422 2.656026 -1.528818 1.514502 1.818144 8.673913 -0.462050 2.020885 -1.154083 1.115130 -0.000002 0.000003 -0.000007 9.109282 -0.518060 2.259857 1.225123 7.023762 -32.942405 1.764690 4.933070 -45.668735 0.920145 3.165179 -35.208696 0.000000 0.000002 -0.000000 9.533402 0.000013 0.000021 2.691526 10.475093 -41.108019 2.680784 5.756177 -58.626778 1.278128 3.712310 -37.338028 -0.000000 0.000002 -0.000000 9.104527 -0.043037 -1.865084 5.271520 12.291877 -52.380598 3.845900 5.190957 -65.535651 2.043695 3.789102 -44.407940 2.644334 0.000015 0.000046 -0.000001 0.000005 -0.000001 8.077788 -0.486884 -3.806267 7.690847 17.805113 -62.582189 3.588495 5.404528 -70.813871 2.129644 4.788450 -45.640000 0.000004 -0.000001 -0.000003 -8.207789 -6.751673 -1.599560 -1.571640 -3.964823 8.082184 12.394458 -5.817271 3.402507 -11.428414 -8.532539 -5.594965 -0.000004 -8.728669 10.710562 -0.504216 -0.000001 0.000000 -0.000002 -0.000676 9.278122 -0.000000 -0.000000 -0.000000 8.207790 -6.751710 -1.599558 -21.528799 11.783950 12.185921 24.749710 0.435509 1.846433 -3.088890 2.998002 -3.664487 -0.000002 -8.728670 10.710561 -1.670628 0.000003 -0.000000 -0.000005 -0.000677 9.278135 0.000003 -0.000001 -0.000000 
5.229710 101.916000 2.926203 -0.269012 11.035690 -4.957603 -0.000006 10.181593 0.131523 1.587378 -2.716975 2.460840 -0.000000 9.893953 -1.470711 1.413251 -2.685138 4.866185 1.389719 -2.170754 4.770323 0.000001 16.740406 -2.049034 5.335482 -3.733795 -6.101408 0.000000 9.617884 1.685009 37.123485 -13.853964 2.278994 0.000000 22.037369 7.501098 0.000000 -0.000000 0.000001 -4.569970 11.014906 -2.160885 2.234507 3.319154 1.062060 36.873224 -13.583008 68.049796 -27.841536 0.000016 0.000001 0.000040 116.856983 -0.000034 -28.328842 0.000008 0.000016 2.212309 23.417818 -21.600318 -2.464814 -1.573954 2.681852 18.671792 -0.303976 -11.105037 -3.215205 -1.872787 1.924266 0.926979 -31.768921 3.264685 -2.654849 -1.527974 1.512615 1.625872 -7.722570 1.317044 -0.000002 -0.000002 -0.000001 -9.108285 -0.517856 2.259832 0.342754 -4.694294 7.844132 0.383312 -2.795075 20.565916 -0.193200 -0.226548 13.843900 -0.000002 -0.000001 -0.000001 -9.532514 -0.000021 -0.000026 0.927346 -8.822615 15.817929 0.898727 -3.903206 33.429756 0.215882 -1.726750 15.906495 -0.000001 -0.000000 -0.000003 -9.103594 -0.043060 -1.865130 2.545353 -11.654486 26.894999 1.717072 -3.912066 40.236846 -0.151621 0.022705 17.820691 -0.000001 0.000000 0.000002 -8.076679 -0.486692 -3.806290 5.545279 -15.980331 36.930304 1.266852 -4.028236 45.642176 -0.765311 -0.312890 22.128944 0.000001 -0.000000 -0.000000 4.570449 11.014708 -2.160855 -1.393659 -21.721525 -23.945448 -14.093604 -27.457400 -17.107790 0.000071 -139.399475 0.000216 28.328854 -0.000065 0.000020 -36.658988 13.065009 18.300276 2.466133 -1.576222 2.681736 18.639675 0.201097 11.067472 3.217793 -1.872040 1.916483 0.957404 31.893042 -3.237414 2.656016 -1.528816 1.514489 1.818144 8.673907 -0.462053 2.020902 -1.154072 1.115152 -0.000003 0.000003 -0.000002 9.109283 -0.518043 2.259872 1.221530 7.023343 -32.943905 1.764790 4.933188 -45.670258 0.920233 3.165307 -35.210243 -0.000002 -0.000001 -0.000001 9.533401 0.000024 0.000042 2.692658 10.476317 -41.110290 2.680681 5.756132 -58.625692 1.278260 3.712469 -37.339900 -0.000001 0.000003 0.000000 9.104527 -0.043045 -1.865070 5.274785 12.294658 -52.380413 3.846103 5.191059 -65.538028 2.043830 3.789194 -44.409436 2.644334 -0.000002 0.000068 0.000002 0.000004 -0.000001 8.077792 -0.486891 -3.806259 7.694743 17.803443 -62.583418 3.588477 5.404524 -70.813646 2.129754 4.788521 -45.641503 0.000001 0.000000 -0.000004 -8.207789 -6.751667 -1.599560 -1.426096 -4.024340 8.140787 12.323760 -5.832214 3.385549 -11.432287 -8.489226 -5.668222 -0.000004 -8.728669 10.710563 -0.501953 0.000004 0.000002 -0.000003 -0.000676 9.278120 -0.000000 0.000000 -0.000000 8.207789 -6.751712 -1.599556 -21.470954 11.824453 12.269353 24.771657 0.353770 1.816497 -3.074676 3.000529 -3.677435 -0.000002 -8.728669 10.710561 -1.720645 0.000009 -0.000001 -0.000001 -0.000677 9.278135 0.000003 -0.000002 -0.000000 
5.139115 101.923485 2.936530 -0.350241 11.024696 -4.957706 -0.000004 10.181568 0.131523 1.568945 -2.661095 2.494443 0.000000 9.893975 -1.470714 1.370530 -2.579479 4.914060 1.347107 -2.064935 4.818244 0.000001 16.740410 -2.049035 5.292551 -3.751753 -6.153653 0.000001 9.617902 1.685010 37.321936 -14.037078 2.534489 0.000003 22.037354 7.501089 0.000000 0.000000 -0.000000 -4.569970 11.014943 -2.160887 2.262107 3.317807 0.595041 36.909622 -12.886423 68.831976 -27.841530 0.000016 0.000010 0.000032 115.844748 -0.000042 -28.328842 0.000009 0.000024 0.716379 21.371431 -20.044018 -2.464804 -1.573953 2.681853 18.671768 -0.303976 -11.105034 -3.215194 -1.872780 1.924273 0.926974 -31.768897 3.264691 -2.654843 -1.527951 1.512619 1.625892 -7.722555 1.317035 -0.000003 0.000000 0.000001 -9.108274 -0.517857 2.259833 0.342741 -4.694285 7.844132 0.383330 -2.795073 20.565891 -0.193213 -0.226568 13.843917 0.000000 -0.000000 -0.000002 -9.532515 -0.000003 -0.000020 0.927369 -8.822605 15.817941 0.898707 -3.903229 33.429773 0.215905 -1.726732 15.906491 0.000001 0.000002 0.000002 -9.103597 -0.043070 -1.865136 2.545336 -11.654497 26.894992 1.717114 -3.912057 40.236836 -0.151652 0.022712 17.820696 0.000001 0.000001 -0.000001 -8.076684 -0.486694 -3.806280 5.545286 -15.980319 36.930300 1.266853 -4.028226 45.642176 -0.765311 -0.312882 22.128944 -0.000002 0.000001 -0.000000 4.570451 11.014750 -2.160854 -1.402880 -22.059156 -23.898924 -14.738088 -27.533275 -16.755255 0.000063 -140.975665 0.000223 28.328846 -0.000045 0.000017 -36.444896 15.956661 16.161063 2.466131 -1.576205 2.681732 18.639672 0.201100 11.067469 3.217808 -1.872044 1.916498 0.957402 31.893046 -3.237414 2.656030 -1.528815 1.514491 1.818144 8.673901 -0.462052 2.020898 -1.154067 1.115141 0.000004 0.000000 -0.000004 9.109275 -0.518061 2.259869 1.217129 7.021615 -32.932099 1.763941 4.932393 -45.658712 0.919585 3.164340 -35.198724 -0.000001 -0.000004 -0.000000 9.533407 0.000014 0.000047 2.693244 10.477450 -41.099738 2.679534 5.755404 -58.611998 1.277538 3.711574 -37.328442 -0.000001 0.000002 0.000001 9.104545 -0.043043 -1.865062 5.276797 12.297474 -52.367897 3.845092 5.190714 -65.527162 2.042961 3.788472 -44.397913 2.644313 0.000011 0.000064 -0.000003 0.000006 -0.000001 8.077798 -0.486889 -3.806246 7.698533 17.800460 -62.571916 3.587383 5.404072 -70.801625 2.128842 4.787797 -45.629967 -0.000000 -0.000000 0.000002 -8.207788 -6.751678 -1.599560 -1.292795 -4.045643 8.247417 12.231020 -5.849640 3.344921 -11.402380 -8.444441 -5.794705 -0.000003 -8.728670 10.710564 -0.500143 0.000000 0.000001 -0.000003 -0.000676 9.278120 -0.000000 0.000000 -0.000000 8.207789 -6.751713 -1.599556 -21.451754 11.846003 12.376879 24.818887 0.293476 1.800947 -2.970167 3.001256 -3.691562 -0.000001 -8.728668 10.710560 -1.864586 0.000009 0.000000 0.000001 -0.000677 9.278137 0.000003 0.000000 -0.000000 
5.027812 101.931656 2.921486 -0.423190 11.085479 -4.978692 -0.000005 10.181601 0.131522 1.538934 -2.612402 2.507559 -0.000001 9.893960 -1.470709 1.305444 -2.488253 4.918978 1.282479 -1.973381 4.823175 0.000006 16.740419 -2.049034 5.219762 -3.810116 -6.166616 0.000000 9.617878 1.685005 37.366210 -14.330667 2.830312 0.000002 22.037354 7.501089 0.000000 0.000000 -0.000000 -4.569967 11.014926 -2.160885 2.294837 3.376964 0.278594 36.956508 -12.620243 69.422289 -27.841530 0.000015 -0.000005 0.000006 115.111077 -0.000001 -28.328836 0.000012 0.000021 -0.015785 19.465626 -19.855220 -2.464808 -1.573959 2.681861 18.671784 -0.303978 -11.105049 -3.215213 -1.872755 1.924274 0.926964 -31.768945 3.264693 -2.654841 -1.527968 1.512614 1.625906 -7.722561 1.317047 -0.000001 -0.000004 -0.000002 -9.108282 -0.517856 2.259848 0.342740 -4.694287 7.844132 0.383336 -2.795078 20.565893 -0.193224 -0.226559 13.843904 0.000001 -0.000002 -0.000002 -9.532516 -0.000034 -0.000019 0.927346 -8.822593 15.817953 0.898727 -3.903224 33.429780 0.215894 -1.726741 15.906484 0.000001 -0.000002 -0.000003 -9.103601 -0.043057 -1.865121 2.545345 -11.654494 26.894980 1.717093 -3.912038 40.236846 -0.151656 0.022699 17.820693 0.000001 -0.000003 0.000001 -8.076683 -0.486692 -3.806276 5.545277 -15.980329 36.930307 1.266871 -4.028215 45.642169 -0.765314 -0.312896 22.128952 0.000001 0.000000 0.000000 4.570448 11.014713 -2.160857 -1.322973 -22.157632 -23.531299 -14.881729 -27.317849 -16.049329 0.000056 -142.820813 0.000220 28.328833 -0.000056 0.000016 -36.192274 18.756396 14.270349 2.466122 -1.576223 2.681730 18.639663 0.201117 11.067470 3.217804 -1.872056 1.916485 0.957402 31.893042 -3.237420 2.656023 -1.528802 1.514511 1.818148 8.673902 -0.462056 2.020895 -1.154070 1.115146 0.000003 -0.000001 -0.000005 9.109307 -0.518049 2.259881 1.204832 7.005251 -32.743039 1.750337 4.919112 -45.469802 0.909194 3.148359 -35.010395 -0.000001 -0.000002 -0.000001 9.533400 -0.000004 0.000048 2.677892 10.468113 -40.909821 2.663528 5.745206 -58.421436 1.265732 3.696971 -37.139942 0.000000 0.000003 0.000001 9.104520 -0.043066 -1.865080 5.259018 12.299428 -52.176116 3.827209 5.184587 -65.337344 2.028675 3.776464 -44.209369 2.644305 0.000001 0.000069 -0.000002 0.000007 -0.000001 8.077790 -0.486908 -3.806256 7.681974 17.791405 -62.378813 3.569811 5.396966 -70.612203 2.113997 4.775912 -45.441006 0.000001 0.000000 -0.000003 -8.207790 -6.751660 -1.599560 -1.145089 -4.075200 8.377565 12.066720 -5.852000 3.326759 -11.333263 -8.466686 -5.915886 -0.000004 -8.728670 10.710563 -0.498573 -0.000001 0.000001 -0.000003 -0.000676 9.278120 -0.000000 0.000000 -0.000000 8.207788 -6.751692 -1.599559 -21.470601 11.822393 12.477380 24.867442 0.214885 1.826430 -2.817205 2.995164 -3.718860 -0.000003 -8.728668 10.710563 -2.033663 0.000002 0.000000 -0.000002 -0.000677 9.278138 0.000003 -0.000001 -0.000000 
